# xmcd
#
# Track frame offsets: 
#        150
#        9905
#        22420
#        33105
#        43950
#        53405
#        63667
#        74620
#        87965
#        96970
#        108452
#        118790
#        130660
#        145837
#        155385
#        166887
#        176470
#        188582
#        199175
#        209502
#        218900
#        232200
#        242985
#        252320
#
# Disc length: 3485 seconds
#
# Revision: 0
# Processed by: cddbd v1.4PL0 Copyright (c) Steve Scherf et al.
# Submitted via: ExactAudioCopy v0.90b4
#
DISCID=600d9b18
DTITLE=Chet Atkins - Hum And Strum Along With Chet Atkins and The Other 
DTITLE=Chet Atkins
DYEAR=1900
DGENRE=Country
TTITLE0=In The Good Old Summertime
TTITLE1=Beautiful Brown Eyes
TTITLE2=The Prisoner's Song
TTITLE3=Titanic
TTITLE4=Tennessee Waltz
TTITLE5=Sweet Bunch Of Daisies
TTITLE6=John Henry
TTITLE7=Birmingham Jail
TTITLE8=Music! Music! Music!
TTITLE9=Cold, Cold Heart
TTITLE10=Bill Bailey
TTITLE11=Goodnight Irene
TTITLE12=Begin The Beguine
TTITLE13=Sabrosa
TTITLE14=Yours
TTITLE15=Siboney
TTITLE16=The Streets Of Laredo
TTITLE17=Delicado
TTITLE18=Peanut Vendor
TTITLE19=El Relicario
TTITLE20=Maria Elena
TTITLE21=Marcheta
TTITLE22=Tzena Tzena Tzena
TTITLE23=Poinciana
EXTD=
EXTT0=
EXTT1=
EXTT2=
EXTT3=
EXTT4=
EXTT5=
EXTT6=
EXTT7=
EXTT8=
EXTT9=
EXTT10=
EXTT11=
EXTT12=
EXTT13=
EXTT14=
EXTT15=
EXTT16=
EXTT17=
EXTT18=
EXTT19=
EXTT20=
EXTT21=
EXTT22=
EXTT23=
PLAYORDER=
